/* XPM */
static char * max_xpm[] = {
"18 18 2 1",
". c #222225",
"+ c #707070",
"..................",
"..................",
"..................",
"..................",
"..................",
"..................",
"......+++++.......",
"......+++++.......",
"......+...+.......",
"......+...+.......",
"......+++++.......",
"..................",
"..................",
"..................",
"..................",
"..................",
"..................",
".................."};
